# xmcd
#
# Track frame offsets: 
#        150
#        9617
#        19479
#        33937
#        45906
#        59986
#        72525
#        87091
#        99630
#        113472
#        127260
#        139582
#        154164
#        167784
#        179590
#        192180
#        203104
#        217496
#        230243
#        242581
#        256909
#        270441
#        283336
#        297260
#        310099
#
# Disc length: 4350 seconds
#
# Revision: 1
# Processed by: cddbd v1.5.1PL2 Copyright (c) Steve Scherf et al.
# Submitted via: ExactAudioCopy v0.95a5
#
DISCID=8210fc19
DTITLE=Homer translated by Fitzgerald - The Iliad read by Guidall
DYEAR=1994
DGENRE=Speech
TTITLE0=Book 17 o
TTITLE1=Book 17 p
TTITLE2=Book 18 a
TTITLE3=Book 18 b
TTITLE4=Book 18 c
TTITLE5=Book 18 d
TTITLE6=Book 18 e
TTITLE7=Book 18 f
TTITLE8=Book 18 g
TTITLE9=Book 18 h
TTITLE10=Book 18 i
TTITLE11=Book 18 j
TTITLE12=Book 18 k
TTITLE13=Book 18 l
TTITLE14=Book 18 m
TTITLE15=Book 19 a
TTITLE16=Book 19 b
TTITLE17=Book 19 c
TTITLE18=Book 19 d
TTITLE19=Book 19 e
TTITLE20=Book 19 f
TTITLE21=Book 19 g
TTITLE22=Book 19 h
TTITLE23=Book 19 i
TTITLE24=Book 20 a
EXTD=
EXTT0=
EXTT1=
EXTT2=
EXTT3=
EXTT4=
EXTT5=
EXTT6=
EXTT7=
EXTT8=
EXTT9=
EXTT10=
EXTT11=
EXTT12=
EXTT13=
EXTT14=
EXTT15=
EXTT16=
EXTT17=
EXTT18=
EXTT19=
EXTT20=
EXTT21=
EXTT22=
EXTT23=
EXTT24=
PLAYORDER=
